<?xml version="1.0" encoding="UTF-8"?>
<svg width="124px" height="32px" viewBox="0 0 124 32" version="1.1" xmlns="http://www.w3.org/2000/svg" xmlns:xlink="http://www.w3.org/1999/xlink">
    <title>logo</title>
    <g id="Composants" stroke="none" stroke-width="1" fill="none" fill-rule="evenodd">
        <g id="SERVICES_PUBLICS_+" transform="translate(-1148.000000, -577.000000)">
            <g id="logo" transform="translate(1148.000000, 577.000000)">
                <path d="M113.744361,5.64705882 L111.413534,5.64705882 L111.413534,10.3529412 L106.75188,10.3529412 L106.75188,12.7058824 L111.413534,12.7058824 L111.413534,17.4117647 L113.744361,17.4117647 L113.744361,12.7058824 L118.406015,12.7058824 L118.406015,10.3529412 L113.744361,10.3529412 L113.744361,5.64705882 Z" id="Path-2" fill="#FFFFFF"></path>
                <path d="M102.090226,30.5882353 L105.819549,30.1176471 L104.421053,20.2352941 L110.015038,19.2941176 L110.481203,23.0588235 L113.744361,22.5882353 L113.744361,32 L102.090226,32 L102.090226,30.5882353 Z" id="Path-3" fill="#FCBFBF"></path>
                <path d="M92.3007519,16 L92.3007519,21.6470588 L102.090226,21.6470588 L102.090226,30.5882353 L105.819549,30.1176471 L104.421053,20.2352941 L110.015038,19.2941176 L109.082707,12.7058824 L106.75188,12.7058824 L106.75188,10.3529412 L110.015038,10.3529412 L104.421053,8.47058824 L102.090226,18.3529412 L92.3007519,16 Z" id="Path-4" fill="#000091"></path>
                <path d="M92.3007519,16 L92.3007519,10.3529412 L102.090226,10.3529412 L102.090226,0 L113.744361,0 L113.744361,5.64705882 L111.413534,5.64705882 L111.413534,10.3529412 L109.548872,10.3529412 L104.421053,8.47058824 L102.090226,18.3529412 L92.3007519,16 Z" id="Path-5" fill="#E1000F"></path>
                <path d="M113.744361,22.5882353 L113.744361,21.6470588 L124,21.6470588 L124,10.3529412 L118.406015,10.3529412 L118.406015,12.7058824 L113.744361,12.7058824 L113.744361,17.4117647 L111.413534,17.4117647 L111.413534,12.7058824 L109.082707,12.7058824 L110.481203,23.0588235 L113.744361,22.5882353 Z" id="Path-6" fill="#CACAFB"></path>
                <path d="M0.932330827,31.5294118 L3.41984397,31.5294118 L3.41984397,26.5828571 L4.97891911,26.5828571 C7.67664464,26.5828571 9.32330827,25.2020168 9.32330827,22.9472269 C9.32330827,20.674958 7.67664464,19.2941176 4.97891911,19.2941176 L0.932330827,19.2941176 L0.932330827,31.5294118 Z M4.88619454,21.1764706 C5.91127032,21.1764706 6.52631579,21.8316542 6.52631579,22.7962301 C6.52631579,23.8336042 5.91127032,24.4705882 4.88619454,24.4705882 L3.26315789,24.4705882 L3.26315789,21.1764706 L4.88619454,21.1764706 Z M19.3413428,27.0235294 C19.3413428,28.6823529 18.3646152,29.6529412 16.7909987,29.6529412 C15.181207,29.6529412 14.222567,28.6823529 14.222567,27.0235294 L14.222567,19.2941176 L11.6541353,19.2941176 L11.6541353,26.8117647 C11.6541353,30.0588235 13.6075904,32 16.7729111,32 C19.9563194,32 21.9097744,30.0588235 21.9097744,26.8117647 L21.9097744,19.2941176 L19.3413428,19.2941176 L19.3413428,27.0235294 Z M24.7067669,31.5294118 L28.5620809,31.5294118 C31.3707033,31.5294118 33.0977444,30.1660504 33.0977444,27.9287395 C33.0977444,26.6527731 32.3825051,25.6040336 31.0915855,25.0272269 C31.9463836,24.4678992 32.39995,23.6114286 32.39995,22.6151261 C32.39995,20.552605 30.8473575,19.2941176 28.300408,19.2941176 L24.7067669,19.2941176 L24.7067669,31.5294118 Z M28.2624208,21.1764706 C29.2495946,21.1764706 29.8345865,21.6947133 29.8345865,22.5703649 C29.8345865,23.4817573 29.2495946,24 28.2624208,24 L27.037594,24 L27.037594,21.1764706 L28.2624208,21.1764706 Z M28.5085512,26.3529412 C29.6244497,26.3529412 30.3007519,26.9486859 30.3007519,28 C30.3007519,29.0337922 29.6244497,29.6470588 28.5085512,29.6470588 L27.037594,29.6470588 L27.037594,26.3529412 L28.5085512,26.3529412 Z M35.8947368,31.5294118 L42.887218,31.5294118 L42.887218,29.2746218 L38.3283945,29.2746218 L38.3283945,19.2941176 L35.8947368,19.2941176 L35.8947368,31.5294118 Z M45.6842105,31.5294118 L48.0150376,31.5294118 L48.0150376,19.2941176 L45.6842105,19.2941176 L45.6842105,31.5294118 Z M57.3117877,29.6317965 C55.0054221,29.6317965 53.3630102,27.7977742 53.3630102,25.4117647 C53.3630102,23.0257552 55.0054221,21.1917329 57.3117877,21.1917329 C58.7095851,21.1917329 59.8103505,21.8861685 60.5092491,22.9011129 L62.4661654,21.3519873 C61.3479275,19.8384738 59.530791,18.8235294 57.3117877,18.8235294 C53.4503726,18.8235294 50.8120301,21.8505564 50.8120301,25.4117647 C50.8120301,28.972973 53.4503726,32 57.3117877,32 C59.530791,32 61.3479275,31.0028617 62.4661654,29.4537361 L60.5092491,27.9224165 C59.8103505,28.9373609 58.7095851,29.6317965 57.3117877,29.6317965 Z M63.8646617,29.9166932 C64.9607552,31.2343402 66.3573905,32 68.443504,32 C70.7064067,32 72.5273363,30.5933227 72.5626942,28.2429253 C72.5626942,23.9694754 66.9407951,24.6104928 66.9407951,22.3491256 C66.9407951,21.6012719 67.5241997,21.0314785 68.4081461,21.0314785 C69.3451293,21.0314785 70.15836,21.65469 70.883196,22.5984102 L72.7218045,20.9246423 C71.6610688,19.6604134 70.2467546,18.8235294 68.3904672,18.8235294 C66.0214909,18.8235294 64.3950295,20.4616852 64.3950295,22.4381558 C64.3950295,26.6581876 70.0169285,26.0349762 70.0169285,28.3319555 C70.0169285,29.2222576 69.415845,29.7564388 68.425825,29.7564388 C67.4181262,29.7564388 66.4281062,29.1866455 65.6855912,28.2251192 L63.8646617,29.9166932 Z M83.443609,24.2521008 L83.443609,22.3361345 L79.9747081,22.3361345 L79.9747081,18.8235294 L78.0729757,18.8235294 L78.0729757,22.3361345 L74.5864662,22.3361345 L74.5864662,24.2521008 L78.0729757,24.2521008 L78.0729757,27.7647059 L79.9747081,27.7647059 L79.9747081,24.2521008 L83.443609,24.2521008 Z" id="PUBLICS-+" fill="#161616" fill-rule="nonzero"></path>
                <path d="M0,11.0931638 C1.09609353,12.4108108 2.49272883,13.1764706 4.57884232,13.1764706 C6.84174508,13.1764706 8.66267465,11.7697933 8.69803251,9.41939587 C8.69803251,5.14594595 3.07613345,5.78696343 3.07613345,3.52559618 C3.07613345,2.77774245 3.65953807,2.20794913 4.54348446,2.20794913 C5.48046764,2.20794913 6.29369832,2.83116057 7.01853436,3.77488076 L8.85714286,2.10111288 C7.79640719,0.836883943 6.38209296,0 4.52580553,0 C2.1568292,0 0.530367836,1.6381558 0.530367836,3.61462639 C0.530367836,7.83465819 6.15226689,7.21144674 6.15226689,9.50842607 C6.15226689,10.3987281 5.55118335,10.9329094 4.56116339,10.9329094 C3.5534645,10.9329094 2.56344454,10.3631161 1.82092957,9.40158983 L0,11.0931638 Z M11.6541353,12.7058824 L19.112782,12.7058824 L19.112782,10.6433613 L14.2500369,10.6433613 L14.2500369,7.49714286 L18.3815421,7.49714286 L18.3815421,5.43462185 L14.2500369,5.43462185 L14.2500369,2.53310924 L19.112782,2.53310924 L19.112782,0.470588235 L11.6541353,0.470588235 L11.6541353,12.7058824 Z M25.7669041,0.470588235 C28.5425955,0.470588235 30.2548727,1.85142857 30.2548727,4.12369748 C30.2548727,5.60941176 29.5158899,6.71058824 28.218164,7.28739496 L28.218164,7.28739496 L32.1654135,12.7058824 L29.1554105,12.7058824 L25.784928,7.75932773 L24.4691782,7.75932773 L24.4691782,12.7058824 L21.9097744,12.7058824 L21.9097744,0.470588235 Z M34.3536565,0.470588235 L37.9924812,10.0315966 L41.6313059,0.470588235 L44.2857143,0.470588235 L39.6273155,12.7058824 L36.3576469,12.7058824 L31.6992481,0.470588235 L34.3536565,0.470588235 Z M25.7323308,2.35294118 L24.2406015,2.35294118 L24.2406015,5.64705882 L25.7323308,5.64705882 C26.8511278,5.64705882 27.5037594,5.01007475 27.5037594,3.97270068 C27.5037594,3.0081248 26.8511278,2.35294118 25.7323308,2.35294118 L25.7323308,2.35294118 Z M46.6165414,12.7058824 L48.9473684,12.7058824 L48.9473684,0.470588235 L46.6165414,0.470588235 L46.6165414,12.7058824 Z M58.2441185,10.8082671 C55.9377529,10.8082671 54.2953411,8.97424483 54.2953411,6.58823529 C54.2953411,4.20222576 55.9377529,2.3682035 58.2441185,2.3682035 C59.6419159,2.3682035 60.7426813,3.06263911 61.44158,4.07758347 L63.3984962,2.52845787 C62.2802584,1.01494436 60.4631218,0 58.2441185,0 C54.3827034,0 51.7443609,3.02702703 51.7443609,6.58823529 C51.7443609,10.1494436 54.3827034,13.1764706 58.2441185,13.1764706 C60.4631218,13.1764706 62.2802584,12.1793323 63.3984962,10.6302067 L61.44158,9.09888712 C60.7426813,10.1138315 59.6419159,10.8082671 58.2441185,10.8082671 Z M65.7293233,12.7058824 L73.1879699,12.7058824 L73.1879699,10.6433613 L68.3252248,10.6433613 L68.3252248,7.49714286 L72.4567301,7.49714286 L72.4567301,5.43462185 L68.3252248,5.43462185 L68.3252248,2.53310924 L73.1879699,2.53310924 L73.1879699,0.470588235 L65.7293233,0.470588235 L65.7293233,12.7058824 Z M75.0526316,11.0931638 C76.1487251,12.4108108 77.5453604,13.1764706 79.6314739,13.1764706 C81.8943767,13.1764706 83.7153062,11.7697933 83.7506641,9.41939587 C83.7506641,5.14594595 78.128765,5.78696343 78.128765,3.52559618 C78.128765,2.77774245 78.7121696,2.20794913 79.596116,2.20794913 C80.5330992,2.20794913 81.3463299,2.83116057 82.0711659,3.77488076 L83.9097744,2.10111288 C82.8490388,0.836883943 81.4347245,0 79.5784371,0 C77.2094608,0 75.5829994,1.6381558 75.5829994,3.61462639 C75.5829994,7.83465819 81.2048985,7.21144674 81.2048985,9.50842607 C81.2048985,10.3987281 80.6038149,10.9329094 79.613795,10.9329094 C78.6060961,10.9329094 77.6160761,10.3631161 76.8735611,9.40158983 L75.0526316,11.0931638 Z" id="SERVICES" fill="#161616" fill-rule="nonzero"></path>
            </g>
        </g>
    </g>
</svg>